<?xml version="1.0" ?><svg height="32" id="icon" viewBox="0 0 32 32" width="32" xmlns="http://www.w3.org/2000/svg"><defs><style>.cls-1{fill:none;}</style></defs><title/><path d="M19,28H3a1,1,0,0,1,0-2H19a1,1,0,0,1,0,2Z"/><path d="M15,20H3a1,1,0,0,1,0-2H15a1,1,0,0,1,0,2Z"/><rect height="2" transform="translate(25.0858 -11.5624) rotate(45)" width="4" x="24.5" y="23.5"/><rect height="2" width="4" x="28" y="15"/><rect height="2" transform="translate(2.4584 20.935) rotate(-45)" width="4" x="24.5" y="6.5"/><rect height="4" width="2" x="17" y="2"/><rect height="2" transform="translate(10.9142 19.5208) rotate(-135)" width="4" x="7.5" y="6.5"/><path d="M18,8a8.0092,8.0092,0,0,0-8,8h2a6,6,0,1,1,6,6H7a1,1,0,0,0,0,2H18A8,8,0,0,0,18,8Z"/><rect class="cls-1" data-name="&lt;Transparent Rectangle&gt;" height="32" id="_Transparent_Rectangle_" width="32"/></svg>